# xmcd
#
# Track frame offsets: 
#        180
#        13628
#        32288
#        48819
#        63742
#        77114
#        87971
#        104502
#
# Disc length: 1593 seconds
#
# Revision: 0
# Processed by: cddbd v1.5.2PL0 Copyright (c) Steve Scherf et al.
# Submitted via: ExactAudioCopyFreeDBPlugin 1.0
#
DISCID=59063708
DTITLE=Various Artist - TexLand's Best Artist Compilation
DYEAR=1900
DGENRE=Country
TTITLE0=Dawn Dorminy - Champagne Cowboy
TTITLE1=Dawn Dorminy - When I Need You
TTITLE2=Scott Hall - Show Me the Way
TTITLE3=Scott Hall - Cowboy's Dream
TTITLE4=Sonny D - This Long Rollin' Highway
TTITLE5=Sonny D - That's Why I Do What I Do
TTITLE6=Jay Wickizer - Hard Headed Heart Breaking Lovers
TTITLE7=Jay Wickizer - I'm Not a One Woman Man
EXTD=
EXTT0=
EXTT1=
EXTT2=
EXTT3=
EXTT4=
EXTT5=
EXTT6=
EXTT7=
PLAYORDER=
